<svg xmlns="http://www.w3.org/2000/svg" viewBox="0 0 420 260"><defs><linearGradient id="p" x1="0" y1="0" x2="1" y2="1"><stop offset="0" stop-color="#fffaf1"/><stop offset="1" stop-color="#ead9b9"/></linearGradient></defs><path d="M42 54c58-20 112-17 168 18v148c-56-34-110-38-168-17z" fill="url(#p)" stroke="#b98327" stroke-width="6"/><path d="M378 54c-58-20-112-17-168 18v148c56-34 110-38 168-17z" fill="url(#p)" stroke="#b98327" stroke-width="6"/><path d="M210 72v148" stroke="#b98327" stroke-width="5"/><path d="M90 102h74M83 129h88M77 156h98M330 102h-74M337 129h-88M343 156h-98" stroke="#9f8266" stroke-width="6" stroke-linecap="round" opacity=".65"/><path d="M210 169c-27-22-62-7-62 20 0 26 33 46 62 67 29-21 62-41 62-67 0-27-35-42-62-20z" fill="#7c231d" stroke="#c99a3d" stroke-width="5"/><path d="M210 118v66M192 139h36" stroke="#e8cf88" stroke-width="8" stroke-linecap="round"/></svg>